<?xml version="1.0" encoding="utf-8"?>
<!-- Generator: Adobe Illustrator 19.1.0, SVG Export Plug-In . SVG Version: 6.00 Build 0)  -->
<svg version="1.1" id="Layer_1" xmlns="http://www.w3.org/2000/svg" xmlns:xlink="http://www.w3.org/1999/xlink" x="0px" y="0px"
	 viewBox="0 0 200 340" style="enable-background:new 0 0 200 340;" xml:space="preserve">
<style type="text/css">
	.st0{fill:#F41111;}
</style>
<g>
  <polygon points=" 39.6,  35.4   52.5,  22.1  145.0,  22.1  157.0,  35.4  145.0,  48.2   52.5,  48.2"  fill="#0F0"></polygon>
  <polygon points="151.4,  53.1  164.3,  41.8  175.5,  53.1  175.5, 150.8  163.5, 163.2  151.4, 151.2"  fill="#0F0"></polygon>
  <polygon points="163.5, 176.5  175.5, 187.8  175.5, 285.5  163.5, 296.7  151.4, 283.4  151.4, 188.6"  fill="#0F0"></polygon>
  <polygon points="145.4, 291.1  157.0, 303.9  145.4, 316.0   52.9, 316     40.0, 305.2   52.1, 291.1"  fill="#0F0"></polygon>
  <polygon points=" 45.2, 284.2   33.6, 296.7   22.3, 284.2   22.3, 188.6   33.8, 176.5   45.2, 187.8"  fill="#0F0"></polygon>
  <polygon points=" 33.8, 163.2   22.3, 150.4   22.3,  53.9   33.8,  41.8   45.2,  53.9   47.3, 150  "  fill="#0F0"></polygon>
  <polygon points=" 39.6, 170     51.7, 156.8  146.2, 156.8  157.0, 170    145.8, 182.9   52.1, 182.9"  fill="#0F0"></polygon></g>
</svg>
