<?xml version="1.0" encoding="utf-8"?>
<!-- Generator: Adobe Illustrator 19.1.0, SVG Export Plug-In . SVG Version: 6.00 Build 0)  -->
<svg version="1.1" id="Layer_1" xmlns="http://www.w3.org/2000/svg" xmlns:xlink="http://www.w3.org/1999/xlink" x="0px" y="0px"
	 viewBox="-155 87 200 340" style="enable-background:new -155 87 200 340;" xml:space="preserve">
<style type="text/css">
	.st0{fill:#00FF00;}
</style>
<g>
	<polygon class="st0" points="-91.8,122.4 -76.6,109.1 15.9,109.1 25.6,122.4 11.3,135.2 -81.2,135.2 	"/>
	<polygon class="st0" points="16.8,140.1 31.7,128.8 40.9,140.1 23.7,237.8 9.5,250.2 -0.5,238.2 	"/>
	<polygon class="st0" points="7.2,263.5 17.2,274.8 0,372.5 -14,383.7 -23.8,370.4 -7,275.6 	"/>
	<polygon class="st0" points="-31.1,378.1 -21.8,390.9 -35.5,403 -128,403 -139,392.2 -124.4,378.1 	"/>
	<polygon class="st0" points="-130.1,371.2 -143.9,383.7 -153,371.2 -136.1,275.6 -122.5,263.5 -113.1,274.8 	"/>
	<polygon class="st0" points="-120.2,250.2 -129.4,237.4 -112.4,140.9 -98.8,128.8 -89.5,140.9 -104.3,237 	"/>
	<polygon class="st0" points="-115.6,257 -101.1,243.8 -6.6,243.8 1.8,257 -11.6,269.9 -105.3,269.9 	"/>
</g>
</svg>
